<?xml version="1.0" encoding="UTF-8" standalone="no"?>
<svg
   xmlns:dc="http://purl.org/dc/elements/1.1/"
   xmlns:cc="http://creativecommons.org/ns#"
   xmlns:rdf="http://www.w3.org/1999/02/22-rdf-syntax-ns#"
   xmlns:svg="http://www.w3.org/2000/svg"
   xmlns="http://www.w3.org/2000/svg"
   xmlns:sodipodi="http://sodipodi.sourceforge.net/DTD/sodipodi-0.dtd"
   xmlns:inkscape="http://www.inkscape.org/namespaces/inkscape"
   aria-hidden="true"
   role="presentation"
   data-slug-id="iot-edge01"
   viewBox="0 0 48.64 48.64"
   version="1.1"
   id="svg897"
   sodipodi:docname="azure-iot-edge.svg"
   inkscape:version="1.0.1 (3bc2e813f5, 2020-09-07)"
   width="256"
   height="256">
  <metadata
     id="metadata903">
    <rdf:RDF>
      <cc:Work
         rdf:about="">
        <dc:format>image/svg+xml</dc:format>
        <dc:type
           rdf:resource="http://purl.org/dc/dcmitype/StillImage" />
        <dc:title></dc:title>
      </cc:Work>
    </rdf:RDF>
  </metadata>
  <defs
     id="defs901" />
  <sodipodi:namedview
     pagecolor="#ffffff"
     bordercolor="#666666"
     borderopacity="1"
     objecttolerance="10"
     gridtolerance="10"
     guidetolerance="10"
     inkscape:pageopacity="0"
     inkscape:pageshadow="2"
     inkscape:window-width="2560"
     inkscape:window-height="1361"
     id="namedview899"
     showgrid="false"
     inkscape:zoom="2.6510418"
     inkscape:cx="3.2805808"
     inkscape:cy="106.47621"
     inkscape:window-x="-9"
     inkscape:window-y="-9"
     inkscape:window-maximized="1"
     inkscape:current-layer="svg897"
     inkscape:document-rotation="0"
     scale-x="0.19"
     viewbox-width="51.2" />
  <path
     d="m 9.6449,20.4216 19.3934,4.4739"
     stroke="#006dd6"
     stroke-width="4"
     stroke-linecap="square"
     stroke-dasharray="1, 7"
     id="path869" />
  <path
     d="M 25.2024,9.13013 30.3171,23.6171"
     stroke="#006dd6"
     stroke-width="4"
     stroke-linecap="square"
     stroke-dasharray="1, 1"
     id="path871" />
  <path
     d="m 31.168,27.0249 5.9671,10.6523"
     stroke="#006dd6"
     stroke-width="4"
     stroke-linecap="square"
     stroke-dasharray="1, 7"
     id="path873" />
  <path
     fill-rule="evenodd"
     clip-rule="evenodd"
     d="m 23.0391,37.8633 -0.7105,-1.4502 7.1783,-11.9456 0.7105,1.4506 z"
     fill="#006dd6"
     id="path875" />
  <path
     d="m 26.2386,2.65106 -5.7064,1.74407 c -0.2251,0.0688 -0.3518,0.30701 -0.283,0.53205 l 1.7446,5.70452 c 0.0688,0.2251 0.3071,0.3517 0.5322,0.2829 l 5.7065,-1.744 c 0.2251,-0.0688 0.3518,-0.30701 0.283,-0.53205 L 26.7708,2.93395 C 26.702,2.70891 26.4637,2.58225 26.2386,2.65106 Z"
     fill="#89c402"
     id="path877" />
  <path
     opacity="0.3"
     fill-rule="evenodd"
     clip-rule="evenodd"
     d="M 20.2493,4.92681 C 20.1804,4.70157 20.3058,4.46359 20.5325,4.39429 l 5.7058,-1.74385 c 0.2253,-0.06886 0.3175,0.04536 0.2075,0.25208 l -4.127,7.75928 c -0.1106,0.2081 -0.2558,0.1956 -0.3251,-0.0311 z"
     fill="#ffffff"
     id="path879" />
  <path
     d="m 33.3327,19.9644 h -7.672 c -0.2354,0 -0.4263,0.1908 -0.4263,0.4261 v 7.6696 c 0,0.2353 0.1909,0.4261 0.4263,0.4261 h 7.672 c 0.2354,0 0.4263,-0.1908 0.4263,-0.4261 v -7.6696 c 0,-0.2353 -0.1909,-0.4261 -0.4263,-0.4261 z"
     fill="#89c402"
     id="path881" />
  <path
     opacity="0.3"
     fill-rule="evenodd"
     clip-rule="evenodd"
     d="m 25.2344,20.387 c 0,-0.2334 0.1941,-0.4226 0.4228,-0.4226 h 7.679 c 0.2335,0 0.2889,0.1338 0.1194,0.3033 l -7.9178,7.9152 c -0.1675,0.1675 -0.3034,0.1093 -0.3034,-0.1193 z"
     fill="#ffffff"
     id="path883" />
  <path
     d="m 20.9523,35.6483 -1.9068,2.826 c -0.1316,0.1951 -0.0801,0.4599 0.115,0.5915 l 2.8269,1.9061 c 0.1952,0.1316 0.4601,0.0801 0.5917,-0.1149 l 1.9068,-2.826 c 0.1316,-0.1951 0.0801,-0.4599 -0.1151,-0.5915 L 21.544,35.5334 c -0.1952,-0.1316 -0.4601,-0.0802 -0.5917,0.1149 z"
     fill="#89c402"
     id="path885" />
  <path
     opacity="0.3"
     fill-rule="evenodd"
     clip-rule="evenodd"
     d="m 19.2219,38.7476 c -0.2298,0.0447 -0.3075,-0.0801 -0.1788,-0.2707 l 1.9089,-2.8293 c 0.131,-0.1941 0.3983,-0.243 0.589,-0.1144 l 2.8301,1.9083 c 0.1943,0.131 0.1682,0.2729 -0.0643,0.318 z"
     fill="#ffffff"
     id="path887" />
  <path
     d="m 39.7514,36.4258 -5.1678,2.9826 c -0.2038,0.1177 -0.2737,0.3783 -0.156,0.5821 l 2.9836,5.166 c 0.1177,0.2038 0.3784,0.2736 0.5823,0.156 l 5.1677,-2.9827 c 0.2038,-0.1176 0.2737,-0.3782 0.156,-0.582 l -2.9836,-5.1661 c -0.1177,-0.2038 -0.3784,-0.2736 -0.5822,-0.1559 z"
     fill="#89c402"
     id="path889" />
  <path
     opacity="0.3"
     fill-rule="evenodd"
     clip-rule="evenodd"
     d="m 34.4279,39.9908 c -0.1178,-0.204 -0.0492,-0.4641 0.1562,-0.5826 l 5.167,-2.9822 c 0.2041,-0.1178 0.3196,-0.0272 0.259,0.1989 l -2.2752,8.4884 c -0.061,0.2277 -0.2052,0.2482 -0.3238,0.0429 z"
     fill="#ffffff"
     id="path891" />
  <path
     d="M 11.4269,17.7714 6.48641,16.448 C 6.25903,16.3871 6.02531,16.522 5.96439,16.7493 L 4.6406,21.6882 c -0.06092,0.2273 0.07401,0.4609 0.30139,0.5218 l 4.94048,1.3234 c 0.22733,0.0609 0.46103,-0.074 0.52203,-0.3013 l 1.3238,-4.9389 c 0.0609,-0.2273 -0.074,-0.4609 -0.3014,-0.5218 z"
     fill="#89c402"
     id="path893" />
  <path
     opacity="0.3"
     fill-rule="evenodd"
     clip-rule="evenodd"
     d="m 5.96362,16.7525 c 0.06135,-0.2289 0.29632,-0.3648 0.5256,-0.3034 l 4.93488,1.3219 c 0.2289,0.0613 0.2481,0.207 0.042,0.326 L 4.90274,21.8851 C 4.69703,22.0038 4.57991,21.9149 4.64135,21.6857 Z"
     fill="#ffffff"
     id="path895" />
</svg>
